<svg width="54" height="20" viewBox="0 0 54 20" fill="none" xmlns="http://www.w3.org/2000/svg">
<g clip-path="url(#clip0_108_11)">
<path d="M41.4056 17.7778C42.0959 17.7778 42.6556 17.2181 42.6556 16.5278C42.6556 15.8374 42.0959 15.2778 41.4056 15.2778C40.7152 15.2778 40.1556 15.8374 40.1556 16.5278C40.1556 17.2181 40.7152 17.7778 41.4056 17.7778Z" fill="white"/>
<path d="M49 17.7778C49.6904 17.7778 50.25 17.2181 50.25 16.5278C50.25 15.8374 49.6904 15.2778 49 15.2778C48.3096 15.2778 47.75 15.8374 47.75 16.5278C47.75 17.2181 48.3096 17.7778 49 17.7778Z" fill="white"/>
<path d="M52.3778 2.98333C52.3261 2.9196 52.2609 2.86811 52.1869 2.83257C52.113 2.79703 52.032 2.77832 51.95 2.77777H40.3833L40.7444 3.88889H51.2222L49.7389 10.5556H41.4055L38.8666 2.51666C38.8392 2.43136 38.7915 2.35397 38.7276 2.29109C38.6638 2.22821 38.5857 2.18171 38.5 2.15555L36.2222 1.45555C36.1522 1.43403 36.0786 1.42651 36.0056 1.43343C35.9327 1.44035 35.8618 1.46157 35.7971 1.49587C35.6663 1.56516 35.5684 1.68355 35.525 1.825C35.4815 1.96644 35.496 2.11937 35.5653 2.25012C35.6346 2.38088 35.753 2.47875 35.8944 2.52222L37.8889 3.13333L40.4389 11.1889L39.5278 11.9333L39.4555 12.0056C39.2302 12.2653 39.1024 12.5954 39.0943 12.9392C39.0862 13.283 39.1982 13.6188 39.4111 13.8889C39.5625 14.073 39.7549 14.2192 39.9729 14.3156C40.191 14.4121 40.4285 14.4562 40.6666 14.4444H49.9389C50.0862 14.4444 50.2275 14.3859 50.3317 14.2817C50.4359 14.1775 50.4944 14.0362 50.4944 13.8889C50.4944 13.7415 50.4359 13.6002 50.3317 13.496C50.2275 13.3919 50.0862 13.3333 49.9389 13.3333H40.5778C40.5138 13.3311 40.4515 13.3125 40.3968 13.2792C40.3421 13.2459 40.297 13.199 40.2657 13.1432C40.2344 13.0873 40.2181 13.0244 40.2182 12.9604C40.2184 12.8963 40.2351 12.8335 40.2666 12.7778L41.6055 11.6667H50.1833C50.3117 11.6698 50.4373 11.6283 50.5386 11.5493C50.6399 11.4703 50.7106 11.3587 50.7389 11.2333L52.5 3.45555C52.5169 3.37273 52.5146 3.28714 52.4935 3.20531C52.4723 3.12348 52.4327 3.04756 52.3778 2.98333Z" fill="white"/>
</g>
<g clip-path="url(#clip1_108_11)">
<path d="M9.99997 9.44444C10.7691 9.44444 11.521 9.21636 12.1605 8.78904C12.8 8.36172 13.2985 7.75436 13.5928 7.04376C13.8872 6.33316 13.9642 5.55123 13.8141 4.79686C13.6641 4.04249 13.2937 3.34956 12.7498 2.80569C12.206 2.26182 11.513 1.89144 10.7587 1.74138C10.0043 1.59133 9.22236 1.66834 8.51176 1.96268C7.80116 2.25702 7.1938 2.75547 6.76648 3.395C6.33916 4.03452 6.11108 4.7864 6.11108 5.55555C6.11108 6.58694 6.52081 7.5761 7.25011 8.30541C7.97942 9.03471 8.96858 9.44444 9.99997 9.44444ZM9.99997 2.77777C10.5494 2.77777 11.0864 2.94068 11.5432 3.24591C12 3.55114 12.3561 3.98496 12.5663 4.49254C12.7765 5.00011 12.8316 5.55863 12.7244 6.09746C12.6172 6.6363 12.3526 7.13125 11.9642 7.51973C11.5757 7.90821 11.0807 8.17277 10.5419 8.27995C10.0031 8.38713 9.44454 8.33212 8.93696 8.12188C8.42939 7.91164 7.99556 7.5556 7.69034 7.0988C7.38511 6.64199 7.2222 6.10494 7.2222 5.55555C7.2222 4.81883 7.51485 4.1123 8.03579 3.59136C8.55672 3.07043 9.26326 2.77777 9.99997 2.77777Z" fill="white"/>
<path d="M16.9278 13.5389C16.0368 12.5972 14.9632 11.8472 13.7725 11.3346C12.5818 10.8219 11.2991 10.5576 10.0028 10.5576C8.70643 10.5576 7.42371 10.8219 6.23303 11.3346C5.04234 11.8472 3.96871 12.5972 3.07777 13.5389C2.88461 13.7452 2.77733 14.0174 2.77777 14.3V17.2222C2.77777 17.5169 2.89484 17.7995 3.10321 18.0079C3.31158 18.2163 3.5942 18.3333 3.88888 18.3333H16.1111C16.4058 18.3333 16.6884 18.2163 16.8968 18.0079C17.1052 17.7995 17.2222 17.5169 17.2222 17.2222V14.3C17.2242 14.0181 17.1189 13.7461 16.9278 13.5389ZM16.1111 17.2222H3.88888V14.2944C4.67623 13.4654 5.62404 12.8052 6.67464 12.354C7.72523 11.9029 8.85664 11.6703 10 11.6703C11.1434 11.6703 12.2748 11.9029 13.3254 12.354C14.3759 12.8052 15.3238 13.4654 16.1111 14.2944V17.2222Z" fill="white"/>
</g>
<defs>
<clipPath id="clip0_108_11">
<rect width="20" height="20" fill="white" transform="translate(34)"/>
</clipPath>
<clipPath id="clip1_108_11">
<rect width="20" height="20" fill="white"/>
</clipPath>
</defs>
</svg>
