<svg width="79" height="43" viewBox="0 0 79 43" fill="none" xmlns="http://www.w3.org/2000/svg">
<circle cx="29" cy="35" r="8" fill="#F3A195"/>
<circle cx="8" cy="35" r="8" fill="#39362E"/>
<circle cx="50" cy="35" r="8" fill="#EFEAE6"/>
<circle cx="71" cy="35" r="8" fill="#C38364"/>
<path d="M1.408 14V2.8H6.4C7.008 2.8 7.54667 2.90133 8.016 3.104C8.496 3.30667 8.896 3.57867 9.216 3.92C9.54667 4.26133 9.79733 4.656 9.968 5.104C10.1387 5.54133 10.224 5.99467 10.224 6.464C10.224 6.93333 10.1387 7.392 9.968 7.84C9.79733 8.27733 9.54667 8.66667 9.216 9.008C8.896 9.34933 8.496 9.62133 8.016 9.824C7.54667 10.0267 7.008 10.128 6.4 10.128H2.56V14H1.408ZM6.4 9.04C6.86933 9.04 7.26933 8.97067 7.6 8.832C7.93067 8.68267 8.20267 8.49067 8.416 8.256C8.62933 8.01067 8.784 7.73333 8.88 7.424C8.98667 7.11467 9.04 6.79467 9.04 6.464C9.04 6.13333 8.98667 5.81333 8.88 5.504C8.784 5.19467 8.62933 4.92267 8.416 4.688C8.20267 4.44267 7.93067 4.25067 7.6 4.112C7.26933 3.96267 6.86933 3.888 6.4 3.888H2.56V9.04H6.4ZM15.5359 14.192C14.9492 14.192 14.3999 14.0853 13.8879 13.872C13.3865 13.6587 12.9492 13.3653 12.5759 12.992C12.2025 12.6187 11.9092 12.176 11.6959 11.664C11.4825 11.152 11.3759 10.5973 11.3759 10C11.3759 9.40267 11.4825 8.848 11.6959 8.336C11.9092 7.824 12.2025 7.38133 12.5759 7.008C12.9492 6.63467 13.3865 6.34133 13.8879 6.128C14.3999 5.91467 14.9492 5.808 15.5359 5.808C16.1225 5.808 16.6665 5.91467 17.1679 6.128C17.6799 6.34133 18.1225 6.63467 18.4959 7.008C18.8692 7.38133 19.1625 7.824 19.3759 8.336C19.5892 8.848 19.6959 9.40267 19.6959 10C19.6959 10.5973 19.5892 11.152 19.3759 11.664C19.1625 12.176 18.8692 12.6187 18.4959 12.992C18.1225 13.3653 17.6799 13.6587 17.1679 13.872C16.6665 14.0853 16.1225 14.192 15.5359 14.192ZM15.5359 13.168C15.9732 13.168 16.3732 13.088 16.7359 12.928C17.1092 12.768 17.4292 12.5493 17.6959 12.272C17.9625 11.984 18.1705 11.648 18.3199 11.264C18.4692 10.88 18.5439 10.4587 18.5439 10C18.5439 9.54133 18.4692 9.12 18.3199 8.736C18.1705 8.352 17.9625 8.02133 17.6959 7.744C17.4292 7.456 17.1092 7.232 16.7359 7.072C16.3732 6.912 15.9732 6.832 15.5359 6.832C15.0985 6.832 14.6932 6.912 14.3199 7.072C13.9572 7.232 13.6425 7.456 13.3759 7.744C13.1092 8.02133 12.9012 8.352 12.7519 8.736C12.6025 9.12 12.5279 9.54133 12.5279 10C12.5279 10.4587 12.6025 10.88 12.7519 11.264C12.9012 11.648 13.1092 11.984 13.3759 12.272C13.6425 12.5493 13.9572 12.768 14.3199 12.928C14.6932 13.088 15.0985 13.168 15.5359 13.168ZM20.7583 6H22.4062V3.2H23.5263V6H26.9023V7.024H23.5263V11.6C23.5263 12.08 23.6436 12.464 23.8783 12.752C24.1129 13.0293 24.4969 13.168 25.0303 13.168C25.3396 13.168 25.6489 13.1253 25.9583 13.04C26.2783 12.944 26.5876 12.816 26.8863 12.656L27.2543 13.312C26.8809 13.632 26.4863 13.8613 26.0703 14C25.6649 14.128 25.2596 14.192 24.8543 14.192C24.0756 14.192 23.4729 13.9733 23.0463 13.536C22.6196 13.088 22.4062 12.432 22.4062 11.568V7.024H20.7583V6ZM36.4231 14.192C35.8365 14.192 35.2978 14.0853 34.8071 13.872C34.3165 13.6587 33.8898 13.3653 33.5271 12.992C33.1751 12.6187 32.8978 12.176 32.6951 11.664C32.5031 11.152 32.4071 10.5973 32.4071 10C32.4071 9.40267 32.5085 8.848 32.7111 8.336C32.9245 7.824 33.2125 7.38133 33.5751 7.008C33.9485 6.63467 34.3805 6.34133 34.8711 6.128C35.3725 5.91467 35.9165 5.808 36.5031 5.808C37.0578 5.808 37.5858 5.904 38.0871 6.096C38.5885 6.288 39.0471 6.56 39.4631 6.912L39.0791 7.632C38.6845 7.38667 38.2951 7.19467 37.9111 7.056C37.5271 6.90667 37.1111 6.832 36.6631 6.832C36.2045 6.832 35.7831 6.912 35.3991 7.072C35.0151 7.232 34.6845 7.456 34.4071 7.744C34.1405 8.02133 33.9325 8.352 33.7831 8.736C33.6338 9.12 33.5591 9.54133 33.5591 10C33.5591 10.4587 33.6285 10.88 33.7671 11.264C33.9058 11.648 34.1085 11.984 34.3751 12.272C34.6418 12.5493 34.9618 12.768 35.3351 12.928C35.7085 13.088 36.1245 13.168 36.5831 13.168C36.9351 13.168 37.3458 13.1147 37.8151 13.008C38.2845 12.8907 38.7591 12.6933 39.2391 12.416L39.6871 13.12C39.3138 13.376 38.8605 13.6213 38.3271 13.856C37.7938 14.08 37.1591 14.192 36.4231 14.192ZM44.9578 14.192C44.3711 14.192 43.8218 14.0853 43.3098 13.872C42.8084 13.6587 42.3711 13.3653 41.9978 12.992C41.6244 12.6187 41.3311 12.176 41.1178 11.664C40.9044 11.152 40.7978 10.5973 40.7978 10C40.7978 9.40267 40.9044 8.848 41.1178 8.336C41.3311 7.824 41.6244 7.38133 41.9978 7.008C42.3711 6.63467 42.8084 6.34133 43.3098 6.128C43.8218 5.91467 44.3711 5.808 44.9578 5.808C45.5444 5.808 46.0884 5.91467 46.5898 6.128C47.1018 6.34133 47.5444 6.63467 47.9178 7.008C48.2911 7.38133 48.5844 7.824 48.7978 8.336C49.0111 8.848 49.1178 9.40267 49.1178 10C49.1178 10.5973 49.0111 11.152 48.7978 11.664C48.5844 12.176 48.2911 12.6187 47.9178 12.992C47.5444 13.3653 47.1018 13.6587 46.5898 13.872C46.0884 14.0853 45.5444 14.192 44.9578 14.192ZM44.9578 13.168C45.3951 13.168 45.7951 13.088 46.1578 12.928C46.5311 12.768 46.8511 12.5493 47.1178 12.272C47.3844 11.984 47.5924 11.648 47.7418 11.264C47.8911 10.88 47.9658 10.4587 47.9658 10C47.9658 9.54133 47.8911 9.12 47.7418 8.736C47.5924 8.352 47.3844 8.02133 47.1178 7.744C46.8511 7.456 46.5311 7.232 46.1578 7.072C45.7951 6.912 45.3951 6.832 44.9578 6.832C44.5204 6.832 44.1151 6.912 43.7418 7.072C43.3791 7.232 43.0644 7.456 42.7978 7.744C42.5311 8.02133 42.3231 8.352 42.1738 8.736C42.0244 9.12 41.9498 9.54133 41.9498 10C41.9498 10.4587 42.0244 10.88 42.1738 11.264C42.3231 11.648 42.5311 11.984 42.7978 12.272C43.0644 12.5493 43.3791 12.768 43.7418 12.928C44.1151 13.088 44.5204 13.168 44.9578 13.168ZM52.8201 14.16C52.4681 14.16 52.1801 14.1067 51.9561 14C51.7321 13.8827 51.5508 13.7227 51.4121 13.52C51.2841 13.3067 51.1935 13.056 51.1401 12.768C51.0975 12.4693 51.0761 12.144 51.0761 11.792V2H52.1961V11.536C52.1961 12.0693 52.2441 12.4747 52.3401 12.752C52.4361 13.0293 52.6708 13.168 53.0441 13.168C53.2361 13.168 53.4175 13.1307 53.5881 13.056C53.7695 12.9813 53.9455 12.88 54.1161 12.752L54.5641 13.344C54.3401 13.6107 54.0895 13.8133 53.8121 13.952C53.5455 14.0907 53.2148 14.16 52.8201 14.16ZM59.364 14.192C58.7773 14.192 58.228 14.0853 57.716 13.872C57.2147 13.6587 56.7773 13.3653 56.404 12.992C56.0307 12.6187 55.7373 12.176 55.524 11.664C55.3107 11.152 55.204 10.5973 55.204 10C55.204 9.40267 55.3107 8.848 55.524 8.336C55.7373 7.824 56.0307 7.38133 56.404 7.008C56.7773 6.63467 57.2147 6.34133 57.716 6.128C58.228 5.91467 58.7773 5.808 59.364 5.808C59.9507 5.808 60.4947 5.91467 60.996 6.128C61.508 6.34133 61.9507 6.63467 62.324 7.008C62.6973 7.38133 62.9907 7.824 63.204 8.336C63.4173 8.848 63.524 9.40267 63.524 10C63.524 10.5973 63.4173 11.152 63.204 11.664C62.9907 12.176 62.6973 12.6187 62.324 12.992C61.9507 13.3653 61.508 13.6587 60.996 13.872C60.4947 14.0853 59.9507 14.192 59.364 14.192ZM59.364 13.168C59.8013 13.168 60.2013 13.088 60.564 12.928C60.9373 12.768 61.2573 12.5493 61.524 12.272C61.7907 11.984 61.9987 11.648 62.148 11.264C62.2973 10.88 62.372 10.4587 62.372 10C62.372 9.54133 62.2973 9.12 62.148 8.736C61.9987 8.352 61.7907 8.02133 61.524 7.744C61.2573 7.456 60.9373 7.232 60.564 7.072C60.2013 6.912 59.8013 6.832 59.364 6.832C58.9267 6.832 58.5213 6.912 58.148 7.072C57.7853 7.232 57.4707 7.456 57.204 7.744C56.9373 8.02133 56.7293 8.352 56.58 8.736C56.4307 9.12 56.356 9.54133 56.356 10C56.356 10.4587 56.4307 10.88 56.58 11.264C56.7293 11.648 56.9373 11.984 57.204 12.272C57.4707 12.5493 57.7853 12.768 58.148 12.928C58.5213 13.088 58.9267 13.168 59.364 13.168ZM65.4824 6H66.6024V7.44C66.8584 6.94933 67.1944 6.55467 67.6104 6.256C68.0264 5.95733 68.5544 5.808 69.1944 5.808C69.5997 5.808 69.9784 5.87733 70.3304 6.016C70.6824 6.144 71.0077 6.33067 71.3064 6.576L70.7304 7.36C70.485 7.17867 70.2237 7.05067 69.9464 6.976C69.6797 6.90133 69.4077 6.864 69.1304 6.864C68.7677 6.864 68.4317 6.93333 68.1224 7.072C67.813 7.21067 67.5464 7.41333 67.3224 7.68C67.0984 7.936 66.9224 8.256 66.7944 8.64C66.6664 9.024 66.6024 9.456 66.6024 9.936V14H65.4824V6Z" fill="#9EA9A7"/>
</svg>
